{"title":"Simon.Og.Malou.2009.SWESUB.DVDRip.XviD.AC3.(5.1)-Zen_Bud.avi","uid":5724599,"size":1469193876,"categoryP":"video","categoryS":"movies","magnet":"?xt=urn:btih:e94c6173ecd2edac905c37ee3f31061a032fc633&amp;dn=Simon.Og.Malou.2009.SWESUB.DVDRip.XviD.AC3.%285.1%29-Zen_Bud.avi&amp;tr=udp%3A%2F%2Ftracker.openbittorrent.com%3A80&amp;tr=udp%3A%2F%2Fopen.demonii.com%3A1337&amp;tr=udp%3A%2F%2Ftracker.coppersurfer.tk%3A6969&amp;tr=udp%3A%2F%2Fexodus.desync.com%3A6969","seeders":0,"leechers":1,"uploader":null,"files":1,"time":1280415379,"description":"General\nComplete name                    : Simon.Og.Malou.2009.avi\nFormat                           : AVI\nFile size                        : 1.37 GiB\nDuration                         : 1h 29mn\nOverall bit rate                 : 2 182 Kbps\n\nVideo\n\nFormat                           : MPEG-4 Visual\nCodec ID/Hint                    : XviD\nDuration                         : 1h 29mn\nBit rate                         : 1 723 Kbps\nWidth                            : 720 pixels\nHeight                           : 552 pixels\nDisplay aspect ratio             : 1.855\nStream size                      : 1.08 GiB (79%)\nWriting library                  : XviD 1.1.2 (UTC 2006-11-01)\n\nAudio\n\nFormat                           : AC-3\nDuration                         : 1h 29mn\nBit rate                         : 448 Kbps\nChannel(s)                       : 6 channels\nChannel positions                : Front: L C R, Side: L R, LFE\nSampling rate                    : 48.0 KHz\nStream size                      : 288 MiB (21%)","torrent":{"xt":"urn:btih:e94c6173ecd2edac905c37ee3f31061a032fc633","amp;dn":"Simon.Og.Malou.2009.SWESUB.DVDRip.XviD.AC3.%285.1%29-Zen_Bud.avi","amp;tr":["udp%3A%2F%2Ftracker.openbittorrent.com%3A80","udp%3A%2F%2Fopen.demonii.com%3A1337","udp%3A%2F%2Ftracker.coppersurfer.tk%3A6969","udp%3A%2F%2Fexodus.desync.com%3A6969"],"infoHash":"e94c6173ecd2edac905c37ee3f31061a032fc633","infoHashBuffer":{"type":"Buffer","data":[233,76,97,115,236,210,237,172,144,92,55,238,63,49,6,26,3,47,198,51]},"announce":[],"urlList":[]}}